/* XPM */
static char *f2d53c28d8a2470fa691a9b6761b3640vQ4X5ZBSbtsrgzxr[] = {
/* columns rows colors chars-per-pixel */
"35 29 11 1 ",
"  c None",
". c gray20",
"X c gray25",
"o c #4C4C4C",
"O c gray35",
"+ c #60A0B9",
"@ c #77B3FE",
"# c gray60",
"$ c gray65",
"% c #B2B2B2",
"& c #AAC7FE",
/* pixels */
"OOOOOOOOooooooooooooooooooOOOOOOOOO",
"O#########$$$$##############$$$$$$O",
"O$XXXXXXXXXXXXXXX.XXXXXXXXXXXXXXX$O",
"O$X+++++++++++++++++++++++++++++X$O",
"O$X@@@@@@+++X.X......XXX+++@@@@@X$o",
"O$X@@@@@@@++X%        #X++@@@@@@X$o",
"O#X@@@@@@@@+X%        #X+@@@@@@@X$o",
"O#X@@@@@@&@+X%        #X+@@@@@&@X$o",
"O#X@@@@@&&@+X%        #X+@@@@&&@X#o",
"O#X@@@@&&&@+X%        #X+@@@&&&@X#o",
"O#X@@@&&&@@+X%        #X+@@&&&@@X#o",
"O#X@@&&&@@@+X%        #X+@&&&@@@X#o",
"o#X@&&&@@@@+X%        #X+@&&@@@@X#o",
"o#X@&&@@@@@+X#        #X+@&@@@@@X#o",
"o$X@&@@@@@@+X#        #X+@@@@@@@X$o",
"o$X@@@@@@@XXX#        #XXX@@@@@@X$o",
"o$X@@@@@@X%%X#        #X%%X@@@@@X#o",
"o$X@@@@@@X##X#        %X##X@@@@@X#o",
"o#X@@@@@&@XXX#        %XXX@@@@@@X#o",
"o#X@@@@&&@@+X#        %X+@@@@@@@X#O",
"o#X@@@&&&@@+X#        %X+@@@@@@&X#O",
"o#X@@&&&@@@+X#        %X+@@@@@&&X#O",
"o#X@&&&@@@@+X#        %X+@@@@&&&X#O",
"o#X@&&@@@@@+X#        %X+@@@&&&@X$O",
"o#X@&@@@@@@+X#        %X+@@@&&@@X$O",
"o#X@@@@@@@++X#        %X++@&&@@@X$O",
"o$X@@@@@@+++X#        %X+++@@@@@X$O",
"o$X+++++++++X#        %X++++++++X$O",
"XXXXXXXXXXXXXXX......XXXXXXXXXXXXXX"
};
