/* XPM */
static char *e2aa3548fd3f45d5ed02fd819926cd68IlhuTOx2aytSZni3[] = {
/* columns rows colors chars-per-pixel */
"32 32 21 1 ",
"  c #9BB85B",
". c #0A0219",
"X c #0E071B",
"o c #100515",
"O c #131313",
"+ c #1A1932",
"@ c #2F052D",
"# c #20132F",
"$ c #391F21",
"% c #571C27",
"& c #5D2C28",
"* c #2A2F4E",
"= c #424C6E",
"- c #EA323C",
"; c #E69C69",
": c gray52",
"> c #92A1B9",
", c #B4B4B4",
"< c #F6CA9F",
"1 c #C7CFDD",
"2 c white",
/* pixels */
"                  1             ",
"                  11@1111       ",
"                  .#>>O<11o     ",
"               1111>>;OO<Oo     ",
"             111>>>>;;2-<-      ",
"           1111>  >>>;;;<;      ",
"          1111>    >>11111      ",
"      %   111>+222,,>>1;;1      ",
"      %% 111>222222,,>>111>     ",
"      %% 11>2222,,2,= >>11>     ",
"       %%>>222,,:,,=   >>>>     ",
"       %%%>22,::,,=*            ",
"        %%% &$:,,=*             ",
"        %%%%&$::=*+             ",
"         %%%<;;=**+++           ",
"          %%<>>>**+++++         ",
"   $$     *%<>XX==*+++++        ",
" $$&$$   ***<>XX==*++++++       ",
"$&&&&$$ *******===*+++++++      ",
"    &&$$******===*+++++++$      ",
"     &&$*****==== ++++++$$$   $ ",
"      &$****====     +++$$$$$$$ ",
"       $***===           $$$$$  ",
"        **==              $$$   ",
"                                ",
"                                ",
"                                ",
"                                ",
"                                ",
"                                ",
"                                ",
"                                "
};
