/* XPM */
static char *_5a1aa38fb504c71c40f962742b377aac9tRlhL5V4MyPntp[] = {
/* columns rows colors chars-per-pixel */
"35 29 11 1 ",
"  c gray25",
". c #4C4C4C",
"X c gray35",
"o c #60A0B9",
"O c #6CADC6",
"+ c #77B3FE",
"@ c gray55",
"# c gray60",
"$ c gray65",
"% c #B2B2B2",
"& c #AAC7FE",
/* pixels */
"XXXXXXXX..................XXXXXXXXX",
"X#########$$$$##############$$$$$$X",
"X$                               $X",
"X$ ooooooooooooooooooooooooooooo $X",
"X$ ooo+++++++ooo..  ooo++++++ooo $.",
"X$ oo+++++++++oo.%# oo++++++++oo $.",
"X# o+++++++++++o.%# o++++++++++o $.",
"X# o+++++++++&+o.%# o++++++&+++o $.",
"X# o++++++++&&+o.%# o+++++&&+++o #.",
"X# o+++++++&&&+o.%# o++++&&&+++o #.",
"X# o++++++&&&++o.%# o+++&&&++++o #.",
"X# o+++++&&&+++o.%# o++&&&+++++o #.",
".# o++++&&&++++o %#.o++&&++++++o #.",
".# o+++&&&+++++o ##.o++&+++++++o #.",
".$ o+++&&++++++o ##.o++++++++++o $.",
".$ o+++&++++++   ##.  +++++++++o $.",
".$ o+++++++++ $$ ##.$$ ++++++++o #.",
".$ o+++++++++ @@ ##.@@ ++++++++o #.",
".# o++++++++&O   #%.  O++++++++o #.",
".# o+++++++&&+Oo #% oO+++++++++o #X",
".# o++++++&&&++o #% o++++++&+++o #X",
".# o+++++&&&+++o #% o+++++&&+++o #X",
".# o++++&&&++++o #% o++++&&&+++o #X",
".# o+++&&&+++++o.#% o+++&&&++++o $X",
".# o+++&&++++++o.#% o+++&&+++++o $X",
".# oo++&++++++oo.#% oo++&+++++oo $X",
".$ ooo+++++++ooo.#%.ooo++++++ooo $X",
".$ ooooooooooooo.#%.oooooooooooo $X",
"                                   "
};
