/* XPM */
static char *aac700fba0dd4806dc1cdd44df7f3772uISplABjWXuSd3te[] = {
/* columns rows colors chars-per-pixel */
"32 33 25 1 ",
"  c #9BB85B",
". c #0D0016",
"X c #0A0219",
"o c #0E071B",
"O c #100515",
"+ c #131313",
"@ c #0E0520",
"# c #1A1932",
"$ c #2F052D",
"% c #20132F",
"& c #391F21",
"* c #221C36",
"= c #571C27",
"- c #5D2C28",
"; c #2A2F4E",
": c #424C6E",
"> c #EA323C",
", c #BF6F4A",
"< c #E69C69",
"1 c gray52",
"2 c #92A1B9",
"3 c #B4B4B4",
"4 c #F6CA9F",
"5 c #C7CFDD",
"6 c white",
/* pixels */
"         5                      ",
"         55$5555                ",
"        @X%22O<55O              ",
"         522<OO4OO              ",
"        522<<6>4>               ",
"      552222<<<4<               ",
"    5552  2255555               ",
"  55552 663225<<5               ",
" 55552666663225552              ",
"555226666666322552#             ",
"552266663366632222;#            ",
"2226666313666631:;;##           ",
"22 66331  1336613:;;###         ",
" 266631      111331::;;###      ",
"  66311      133313:;;;####     ",
"  66631       1113::;;;#**#     ",
"   --&        oo:::;;; #,,*     ",
"   ---&      ooo++++++ ,,,,     ",
"    -4< 55o;;;;;## ,.,,         ",
"     4<,=5#;;;;;### ,,          ",
"      4<=#;;;;;;###             ",
"     ===#;;;:;;;####            ",
"    === ;;;;:;;#####            ",
"   === ;;;;::;;######           ",
"  ===  ;;;:::;;######           ",
" ===   ;;;:::;#######           ",
"===    ;;;;;;   ######          ",
"==      ;;;;       ####         ",
"=       &&&         &&&         ",
"        &&-         &&&         ",
"        &-          &&&         ",
"        &--         &&&&        ",
"        &&--        &&&&&       "
};
