/* XPM */
static char *_48392db1e5044d1e42136ea80da774fCTqDbPFtxjXz0LuR[] = {
/* columns rows colors chars-per-pixel */
"32 32 4 1 ",
"  c #9BB85B",
". c black",
"X c #FF8F00",
"o c #FFB300",
/* pixels */
"              .......           ",
"             .XXXoooo.          ",
"            .Xoooooooo.         ",
"           .Xoooooooooo.        ",
"           .Xooo...Xooo.        ",
"           .Xoo.   .Xoo.        ",
"           .Xoo.   .Xoo.        ",
"           .Xoo.   .Xoo.        ",
"           .Xooo...Xooo.        ",
"            .Xooooooooo.        ",
"           .Xooooooooo.         ",
"          .Xoo.XXXooo.          ",
"         .Xoo. ......           ",
"        .Xoo.                   ",
"       .Xoo.                    ",
"      .Xoo.                     ",
"     .Xoo.                      ",
"    .XoooX.                     ",
"   .XoooooX.                    ",
"  .Xoooo..X.                    ",
" .Xoooo.  .                     ",
".XooooXX.                       ",
".Xooo..X.                       ",
" .Xo.  .                        ",
"  .XX.                          ",
"   .X.                          ",
"    .                           ",
"                                ",
"                                ",
"                                ",
"                                ",
"                                "
};
