/* XPM */
static char *f1d6b593daee4babeb7715473a0c5de3L4eopDKEP1S9agtI[] = {
/* columns rows colors chars-per-pixel */
"32 34 23 1 ",
"  c #9BB85B",
". c #0D0016",
"X c #0A0219",
"o c #0E071B",
"O c #100515",
"+ c #131313",
"@ c #0E0520",
"# c #1A1932",
"$ c #391F21",
"% c #221C36",
"& c #571C27",
"* c #5D2C28",
"= c #2A2F4E",
"- c #424C6E",
"; c #EA323C",
": c #BF6F4A",
"> c #E69C69",
", c gray52",
"< c #92A1B9",
"1 c #B4B4B4",
"2 c #F6CA9F",
"3 c #C7CFDD",
"4 c white",
/* pixels */
"         3                      ",
"         33O3333                ",
"        @XO<<O>33O              ",
"         3<<>OO2OO              ",
"        3<<>>4;2;               ",
"      33<<<<>>>2>               ",
"    333<  <<33333               ",
"  3333< 441<<3>>3               ",
" 3333< 44441<<333<              ",
"333<< 4444441<<33<#             ",
"33<< 444114441<<<<=#            ",
"<<< 4441,144441,-==#            ",
"<<  4411,,1144,1-==##           ",
" < 4441, ,,,11,--==##           ",
"   441,, ,111,1-===###          ",
"   4441,  ,,,1--===%%#          ",
"    **$   oo---===%::%          ",
"    ***$ ooo++++++::::          ",
"     *2>33o=====##:.::          ",
"      2>:3#=====###::           ",
"      &2>#======###             ",
"     &&##===-===####            ",
"    &&& ====-==#####            ",
"   &&&  ===--==######           ",
"  &&&  ===---==######           ",
" &&&   ===---=#######           ",
"&&&    ==---==#######           ",
"&&     ====== ######            ",
"&       ====   ####             ",
"        $$$     $$$             ",
"        $$*     $$$             ",
"        $*      $$$             ",
"        $**     $$$$            ",
"        $$**    $$$$$           "
};
