/* XPM */
static char *_cf83efb0fcf4644b31cb03e41b6c3fcwcbuCf0aSpA4lx2b[] = {
/* columns rows colors chars-per-pixel */
"32 32 9 1 ",
"  c #CDA859",
". c #DFB761",
"X c #9BB85B",
"o c #749391",
"O c #87A3A2",
"+ c #A5B4B2",
"@ c #AFBDBB",
"# c #EECC85",
"$ c #C5D5D1",
/* pixels */
"XXXXXXXXXXXXXXXXXXXXXXXXXXXXXXXX",
"XXXXXXXXXXXXXXXXXXXXXXXXXXXXXXXX",
"XXXXXXXXXXXXXXXXXXXXXXXXXXXXXXXX",
"XXXXXXXXXXXXXXXXXXXXXXXXXXXXXXXX",
"XXXXXXXXXXXXXXXXXXXXXXXXXXXXXXXX",
"XXXXXXXXXXXXXXX++++++++XXXXXXXXX",
"XXXXXXXXXXXX+++++++++++++XXXXXXX",
"XXXXXXXXXX+++++++@@@@@++++XXXXXX",
"XXXXXXXXX+++++@@@@@@@@@@+++XXXXX",
"XXXXXXXX++++@@@@@@@@@@@@@+++XXXX",
"XXXXXXX+++@@@@@@@@@@@@@@@@++.XXX",
"XXXXXX++@@@@@@@@@@@@@@@@@@@+.XXX",
"XXXXX++@@@@@@@@@@@@@@@@@@@@@.XXX",
"XXXX.+@@@@@@@@@@@@@@$@@@@@@$ XXX",
"XXXX@@@@@@@@@@@@@@@@@$$@@@@Oo##X",
"XX  @@@@@@@@@@@@@@@@@@$$@@$oo  X",
"XXX @@@@@@@@@@@@@@@@@@$O$$Ooo#XX",
"XXX@@@@@@@@@@@@@@@@@@@@$O$oo XXX",
"X# @@@@@@@@@@@@@@@@@@@@$OOoo#XXX",
"X# @@@@@@@@@@@@@@@@@@@$$Ooo XXXX",
"X# @@@@@@@@@@@@@@@$@$$$Ooo #XXXX",
"X  @@@@@@@@@@@@$@$@$$$Ooo#XXXXXX",
"XX O@@@@@@$@@@$@$$$$$Ooo #XXXXXX",
"XX oO$@$@$@$@$@$$$$OOoo XXXXXXXX",
"XX# oO$$$$$$$$$$$OOooo #XX@@XXXX",
"XXX# oOO$$$$$$OOOoo## XX@@@@@XXX",
"XXX##oooOOOOOOoooo XXXX@@@$@$.XX",
"XXXX# oooooooooo #XXXX.$@$@$O.XX",
"XXXX X#oo## X o#XXXXXX.O$$$O.XXX",
"XXXXXXX #XXXXX XXXXXXXX.OOO.XXXX",
"XXXXXXXXXXXXXXXXXXXXXXXX...XXXXX",
"XXXXXXXXXXXXXXXXXXXXXXXXXXXXXXXX"
};
